<svg xmlns="http://www.w3.org/2000/svg" xmlns:xlink="http://www.w3.org/1999/xlink" viewBox="0 0 512 512" style="enable-background:new 0 0 512 512" xml:space="preserve"><path style="fill:#9ec853" d="M0 255.999C0 114.609 114.613 0 256.002 0 397.387 0 512 114.609 512 255.999S397.387 512 256.002 512C114.613 512 0 397.389 0 255.999z"/><defs><path id="a" d="M0 255.996C0 114.607 114.613 0 256.002 0 397.387 0 512 114.607 512 255.996 512 397.389 397.387 512 256.002 512 114.613 512 0 397.389 0 255.996z"/></defs><clipPath id="b"><use xlink:href="#a" style="overflow:visible"/></clipPath><path style="clip-path:url(#b);fill:#3d2a3d" d="M406 496H116l21.481-290h236.297z"/><g style="clip-path:url(#b)"><path style="fill:#3d2a3d" d="m424.17 378.154-31.61.068-15.548 118.571L456 479.688z"/><ellipse transform="rotate(-26.983 326.614 130.099)" style="fill:#3d2a3d" cx="326.606" cy="130.094" rx="24.949" ry="29.107"/><ellipse transform="rotate(-26.983 307.779 154.205)" style="fill:#3d2a3d" cx="307.772" cy="154.2" rx="24.949" ry="29.107"/><ellipse transform="rotate(-26.983 357.533 161.041)" style="fill:#3d2a3d" cx="357.525" cy="161.035" rx="24.065" ry="28.076"/><ellipse transform="rotate(-26.983 339.366 184.293)" style="fill:#3d2a3d" cx="339.359" cy="184.286" rx="24.065" ry="28.076"/><ellipse transform="rotate(-26.983 379.626 201.488)" style="fill:#3d2a3d" cx="379.618" cy="201.481" rx="23.18" ry="27.044"/><ellipse transform="rotate(-26.983 362.127 223.886)" style="fill:#3d2a3d" cx="362.119" cy="223.878" rx="23.18" ry="27.044"/><ellipse transform="rotate(-26.983 394.358 246.265)" style="fill:#3d2a3d" cx="394.349" cy="246.257" rx="22.296" ry="26.012"/><ellipse transform="rotate(-26.983 377.526 267.808)" style="fill:#3d2a3d" cx="377.518" cy="267.799" rx="22.296" ry="26.012"/><g><ellipse transform="rotate(-26.983 403.192 290.196)" style="fill:#3d2a3d" cx="403.183" cy="290.187" rx="21.412" ry="24.98"/><ellipse transform="rotate(-26.983 387.027 310.885)" style="fill:#3d2a3d" cx="387.02" cy="310.875" rx="21.412" ry="24.98"/></g><g><ellipse transform="rotate(-26.983 407.593 328.105)" style="fill:#3d2a3d" cx="407.585" cy="328.095" rx="20.527" ry="23.949"/><ellipse transform="rotate(-26.983 392.096 347.94)" style="fill:#3d2a3d" cx="392.089" cy="347.928" rx="20.527" ry="23.949"/></g><g><ellipse transform="rotate(-26.983 409.026 354.817)" style="fill:#3d2a3d" cx="409.018" cy="354.806" rx="19.643" ry="22.917"/><ellipse transform="rotate(-26.983 394.197 373.796)" style="fill:#3d2a3d" cx="394.19" cy="373.785" rx="19.643" ry="22.917"/></g><g><ellipse transform="rotate(-26.983 408.956 365.156)" style="fill:#3d2a3d" cx="408.948" cy="365.145" rx="18.759" ry="21.885"/><ellipse transform="rotate(-26.983 394.795 383.28)" style="fill:#3d2a3d" cx="394.787" cy="383.269" rx="18.759" ry="21.885"/></g></g><g style="clip-path:url(#b)"><path style="fill:#3d2a3d" d="m98.866 380.32 31.583-1.308 20.696 117.781-79.658-13.649z"/><ellipse transform="rotate(-65.513 185.528 128.24)" style="fill:#3d2a3d" cx="185.535" cy="128.247" rx="29.107" ry="24.949"/><ellipse transform="rotate(-65.513 205.393 151.503)" style="fill:#3d2a3d" cx="205.401" cy="151.509" rx="29.107" ry="24.949"/><ellipse transform="rotate(-65.513 155.987 160.498)" style="fill:#3d2a3d" cx="155.993" cy="160.505" rx="28.076" ry="24.065"/><ellipse transform="rotate(-65.513 175.148 182.935)" style="fill:#3d2a3d" cx="175.155" cy="182.943" rx="28.076" ry="24.065"/><ellipse transform="rotate(-65.513 135.677 201.866)" style="fill:#3d2a3d" cx="135.682" cy="201.875" rx="27.044" ry="23.18"/><ellipse transform="rotate(-65.513 154.134 223.479)" style="fill:#3d2a3d" cx="154.14" cy="223.489" rx="27.044" ry="23.18"/><ellipse transform="rotate(-65.513 122.91 247.239)" style="fill:#3d2a3d" cx="122.915" cy="247.25" rx="26.012" ry="22.296"/><ellipse transform="rotate(-65.513 140.663 268.027)" style="fill:#3d2a3d" cx="140.668" cy="268.039" rx="26.012" ry="22.296"/><g><ellipse transform="rotate(-65.513 115.998 291.51)" style="fill:#3d2a3d" cx="116.002" cy="291.522" rx="24.98" ry="21.412"/><ellipse transform="rotate(-65.513 133.046 311.473)" style="fill:#3d2a3d" cx="133.051" cy="311.487" rx="24.98" ry="21.412"/></g><g><ellipse transform="rotate(-65.513 113.251 329.572)" style="fill:#3d2a3d" cx="113.255" cy="329.586" rx="23.949" ry="20.527"/><ellipse transform="rotate(-65.513 129.596 348.71)" style="fill:#3d2a3d" cx="129.6" cy="348.726" rx="23.949" ry="20.527"/></g><g><ellipse transform="rotate(-65.513 112.982 356.319)" style="fill:#3d2a3d" cx="112.986" cy="356.334" rx="22.917" ry="19.643"/><ellipse transform="rotate(-65.513 128.623 374.633)" style="fill:#3d2a3d" cx="128.627" cy="374.65" rx="22.917" ry="19.643"/></g><g><ellipse transform="rotate(-65.513 113.503 366.644)" style="fill:#3d2a3d" cx="113.507" cy="366.66" rx="21.885" ry="18.759"/><ellipse transform="rotate(-65.513 128.439 384.134)" style="fill:#3d2a3d" cx="128.443" cy="384.151" rx="21.885" ry="18.759"/></g></g><g style="clip-path:url(#b)"><path style="fill:#e38a5b" d="M186.411 238.691c7.2 17.052 3.28 33.624-8.756 37.017-12.038 3.393-27.628-7.679-34.828-24.728-7.2-17.052-3.28-33.625 8.756-37.018s27.63 7.68 34.828 24.729zM332.973 238.691c-7.2 17.052-3.277 33.624 8.758 37.017 12.036 3.393 27.628-7.679 34.825-24.728 7.202-17.052 3.282-33.625-8.756-37.018-12.033-3.394-27.627 7.68-34.827 24.729z"/></g><path style="clip-path:url(#b);fill:#e38a5b" d="m463.386 545.884-.058-.924c0-56.196-21.036-110.643-46.722-121.011L307.21 379.877c-25.688-10.359-67.755-10.4-93.448-.123l-110.961 44.334c-25.708 10.292-46.744 64.677-46.744 120.873l-.057.923h407.386z"/><path style="clip-path:url(#b);fill:#e38a5b" d="M306.019 382.581c0 24.124-19.555 43.679-43.678 43.679h-5.297c-24.123 0-43.678-19.555-43.678-43.679V270.074c0-24.123 19.555-43.679 43.678-43.679h5.297c24.123 0 43.678 19.556 43.678 43.679v112.507z"/><g style="clip-path:url(#b)"><path style="fill:#f5b68c" d="M353.695 246.162c0 51.916-42.086 94.002-94.002 94.002s-94.002-42.086-94.002-94.002v-78.188c0-51.916 42.086-94.002 94.002-94.002h.001c51.916 0 94.002 42.086 94.002 94.002v78.188z"/></g><g style="clip-path:url(#b)"><circle style="fill:#3d2a3d" cx="223.651" cy="238.697" r="10.87"/><circle style="fill:#3d2a3d" cx="295.735" cy="238.697" r="10.87"/></g><g style="clip-path:url(#b)"><path style="fill:#3d2a3d" d="M259.693 69.792c-60.945 0-110.351 53.548-110.351 119.607 0 21.938 5.453 42.491 14.964 60.168l3.618-30.684c4.189-35.527 34.301-62.299 70.074-62.3l43.378-.002c35.77-.002 65.883 26.762 70.079 62.286l3.626 30.699c9.509-17.675 14.962-38.228 14.962-60.166 0-66.06-49.406-119.608-110.35-119.608z"/></g><path style="clip-path:url(#b);fill:#e38a5b" d="M275.248 253.581c-.493 8.664-7.734 15.537-16.683 15.537-7.581 0-13.913-4.959-15.997-11.757-.466 1.594-.803 3.252-.803 4.989 0 9.908 8.042 17.946 17.932 17.946 9.916 0 17.927-8.039 17.927-17.946-.002-3.21-.9-6.165-2.376-8.769z"/><path style="clip-path:url(#b);fill:#966796" d="M463.328 544.961c0-56.196-21.036-110.643-46.722-121.011l-86.98-35.042c-12.093 26.56-38.847 45.035-69.934 45.035-30.943 0-57.595-18.303-69.766-44.665l-87.125 34.81c-25.708 10.292-46.744 64.677-46.744 120.873l-.057.923h407.386l-.058-.923z"/><g style="clip-path:url(#b)"><ellipse style="fill:#eb987f" cx="320.054" cy="266.029" rx="21.949" ry="16.462"/><ellipse style="fill:#eb987f" cx="199.332" cy="266.029" rx="21.949" ry="16.462"/></g><g style="clip-path:url(#b)"><path style="fill:#fff" d="M284.07 289.587c-12.263 11.545-33.299 11.545-45.564 0-8.647-8.141-21.709 4.873-13.037 13.038 19.688 18.533 51.952 18.533 71.638 0 8.675-8.165-4.388-21.179-13.037-13.038z"/></g><g style="clip-path:url(#b)"><path style="fill:#735a73" d="M208.283 221.286c5.69-6.259 13.699-9.05 22.034-9.183 4.145-.066 4.152-6.5 0-6.435-9.947.158-19.784 3.588-26.585 11.067-2.783 3.063 1.754 7.628 4.551 4.551zM311.738 216.736c-6.8-7.479-16.638-10.909-26.583-11.067-4.151-.066-4.146 6.369 0 6.435 8.334.133 16.342 2.923 22.033 9.183 2.796 3.076 7.334-1.489 4.55-4.551z"/></g><g style="clip-path:url(#b)"><ellipse transform="rotate(-66.009 227.616 108.28)" style="fill:#3d2a3d" cx="227.616" cy="108.279" rx="18.943" ry="22.1"/><ellipse transform="rotate(-66.009 245.148 93.045)" style="fill:#3d2a3d" cx="245.147" cy="93.044" rx="18.943" ry="22.1"/><ellipse transform="rotate(-66.009 236.03 136.838)" style="fill:#3d2a3d" cx="236.029" cy="136.837" rx="18.271" ry="21.317"/><ellipse transform="rotate(-66.009 252.94 122.143)" style="fill:#3d2a3d" cx="252.94" cy="122.141" rx="18.271" ry="21.317"/><ellipse transform="rotate(-66.009 256.628 160.602)" style="fill:#3d2a3d" cx="256.628" cy="160.6" rx="17.6" ry="20.533"/><ellipse transform="rotate(-66.009 272.917 146.446)" style="fill:#3d2a3d" cx="272.916" cy="146.445" rx="17.6" ry="20.533"/><ellipse transform="rotate(-66.009 285.603 178.254)" style="fill:#3d2a3d" cx="285.602" cy="178.252" rx="16.928" ry="19.75"/><ellipse transform="rotate(-66.009 301.27 164.638)" style="fill:#3d2a3d" cx="301.27" cy="164.637" rx="16.928" ry="19.75"/><g><ellipse transform="rotate(-66.009 319.145 188.477)" style="fill:#3d2a3d" cx="319.145" cy="188.475" rx="16.257" ry="18.966"/><ellipse transform="rotate(-66.009 334.191 175.402)" style="fill:#3d2a3d" cx="334.191" cy="175.4" rx="16.257" ry="18.966"/></g><g><ellipse transform="rotate(-66.009 353.448 189.955)" style="fill:#3d2a3d" cx="353.447" cy="189.953" rx="15.586" ry="18.183"/><ellipse transform="rotate(-66.009 367.872 177.42)" style="fill:#3d2a3d" cx="367.872" cy="177.417" rx="15.586" ry="18.183"/></g><g><ellipse transform="rotate(-66.009 384.702 181.37)" style="fill:#3d2a3d" cx="384.701" cy="181.367" rx="14.914" ry="17.4"/></g></g></svg>